<svg xmlns="http://www.w3.org/2000/svg" version="1.1" xmlns:xlink="http://www.w3.org/1999/xlink" xmlns:svgjs="http://svgjs.com/svgjs" width="500" height="500"><svg xmlns="http://www.w3.org/2000/svg" version="1.1" xmlns:xlink="http://www.w3.org/1999/xlink" xmlns:svgjs="http://svgjs.com/svgjs" width="2" height="0" style="opacity: 0; position: absolute; left: -100%; top: -100%; overflow: hidden;" focusable="false" aria-hidden="true"><path d="M0 0 "></path></svg><g class="descending-line"></g><g class="word" transform="matrix(1,0,0,1,500,40)"><line x1="0" y1="0" x2="-120" y2="0" stroke-linecap="round" stroke-width="3" stroke="black"></line><text x="-20" y="-38" direction="rtl" font-size="24" fill="black" svgjs:data="{&quot;leading&quot;:&quot;1.3&quot;}"><tspan dy="31.200000000000003" x="-20" svgjs:data="{&quot;leading&quot;:&quot;1.3&quot;,&quot;newLined&quot;:true}">הלך</tspan><title>verb</title></text><g class="word" transform="matrix(0.5000000000000001,-0.8660254037844386,0.8660254037844386,0.5000000000000001,-20.20026837462514,0.11562500000000142)"><line x1="0" y1="0" x2="-68.8046875" y2="0" stroke-linecap="round" stroke-width="3" stroke="black"></line><text x="-20" y="-38" direction="rtl" font-size="24" fill="black" svgjs:data="{&quot;leading&quot;:&quot;1.3&quot;}"><tspan dy="31.200000000000003" x="-20" svgjs:data="{&quot;leading&quot;:&quot;1.3&quot;,&quot;newLined&quot;:true}">לא</tspan><title>underslant</title></text></g><g class="descending-line"><line x1="-65" y1="0" x2="-82" y2="30" stroke-linecap="round" stroke-width="3" stroke="black"></line><g class="word" transform="matrix(1,0,0,1,-82,30)"><line x1="0" y1="0" x2="-97.609375" y2="0" stroke-linecap="round" stroke-width="3" stroke="black"></line><text x="-20" y="-38" direction="rtl" font-size="24" fill="black" svgjs:data="{&quot;leading&quot;:&quot;1.3&quot;}"><tspan dy="31.200000000000003" x="-20" svgjs:data="{&quot;leading&quot;:&quot;1.3&quot;,&quot;newLined&quot;:true}">בעצת</tspan><title>underslantthenstraight</title></text><g class="word" transform="matrix(1,0,0,1,-97.609375,30)"><line x1="0" y1="0" x2="-46.234375" y2="0" stroke-linecap="round" stroke-width="3" stroke="black"></line><text x="-20" y="-38" direction="rtl" font-size="24" fill="black" svgjs:data="{&quot;leading&quot;:&quot;1.3&quot;}"><tspan dy="31.200000000000003" x="-20" svgjs:data="{&quot;leading&quot;:&quot;1.3&quot;,&quot;newLined&quot;:true}"> </tspan><title>stairstep</title></text><g class="word" transform="matrix(0.5000000000000001,-0.8660254037844386,0.8660254037844386,0.5000000000000001,-20.200268374625125,0.11562499999999432)"><line x1="0" y1="0" x2="-112.01171875" y2="0" stroke-linecap="round" stroke-width="3" stroke="black"></line><text x="-20" y="-38" direction="rtl" font-size="24" fill="black" svgjs:data="{&quot;leading&quot;:&quot;1.3&quot;}"><tspan dy="31.200000000000003" x="-20" svgjs:data="{&quot;leading&quot;:&quot;1.3&quot;,&quot;newLined&quot;:true}">רשעים</tspan><title>underslant</title></text></g></g><line x1="-97.609375" y1="0" x2="-97.609375" y2="30" stroke-linecap="round" stroke-width="3" stroke="black"></line></g></g></g><g class="descending-line"></g><g class="word" transform="matrix(1,0,0,1,500,40)"><line x1="0" y1="0" x2="-120" y2="0" stroke-linecap="round" stroke-width="3" stroke="black"></line><text x="-20" y="-38" direction="rtl" font-size="24" fill="black" svgjs:data="{&quot;leading&quot;:&quot;1.3&quot;}"><tspan dy="31.200000000000003" x="-20" svgjs:data="{&quot;leading&quot;:&quot;1.3&quot;,&quot;newLined&quot;:true}">עמד</tspan><title>verb</title></text><g class="word" transform="matrix(0.5000000000000001,-0.8660254037844386,0.8660254037844386,0.5000000000000001,-20.20026837462514,0.11562500000000142)"><line x1="0" y1="0" x2="-68.8046875" y2="0" stroke-linecap="round" stroke-width="3" stroke="black"></line><text x="-20" y="-38" direction="rtl" font-size="24" fill="black" svgjs:data="{&quot;leading&quot;:&quot;1.3&quot;}"><tspan dy="31.200000000000003" x="-20" svgjs:data="{&quot;leading&quot;:&quot;1.3&quot;,&quot;newLined&quot;:true}">לא</tspan><title>underslant</title></text></g><g class="descending-line"><line x1="-65" y1="0" x2="-82" y2="30" stroke-linecap="round" stroke-width="3" stroke="black"></line><g class="word" transform="matrix(1,0,0,1,-82,30)"><line x1="0" y1="0" x2="-97.609375" y2="0" stroke-linecap="round" stroke-width="3" stroke="black"></line><text x="-20" y="-38" direction="rtl" font-size="24" fill="black" svgjs:data="{&quot;leading&quot;:&quot;1.3&quot;}"><tspan dy="31.200000000000003" x="-20" svgjs:data="{&quot;leading&quot;:&quot;1.3&quot;,&quot;newLined&quot;:true}">בדרך</tspan><title>underslantthenstraight</title></text><g class="word" transform="matrix(1,0,0,1,-97.609375,30)"><line x1="0" y1="0" x2="-46.234375" y2="0" stroke-linecap="round" stroke-width="3" stroke="black"></line><text x="-20" y="-38" direction="rtl" font-size="24" fill="black" svgjs:data="{&quot;leading&quot;:&quot;1.3&quot;}"><tspan dy="31.200000000000003" x="-20" svgjs:data="{&quot;leading&quot;:&quot;1.3&quot;,&quot;newLined&quot;:true}"> </tspan><title>stairstep</title></text><g class="word" transform="matrix(0.5000000000000001,-0.8660254037844386,0.8660254037844386,0.5000000000000001,-20.200268374625125,0.11562499999999432)"><line x1="0" y1="0" x2="-112.01171875" y2="0" stroke-linecap="round" stroke-width="3" stroke="black"></line><text x="-20" y="-38" direction="rtl" font-size="24" fill="black" svgjs:data="{&quot;leading&quot;:&quot;1.3&quot;}"><tspan dy="31.200000000000003" x="-20" svgjs:data="{&quot;leading&quot;:&quot;1.3&quot;,&quot;newLined&quot;:true}">חטאים</tspan><title>underslant</title></text></g></g><line x1="-97.609375" y1="0" x2="-97.609375" y2="30" stroke-linecap="round" stroke-width="3" stroke="black"></line></g></g></g><g class="descending-line"></g><g class="word" transform="matrix(1,0,0,1,500,40)"><line x1="0" y1="0" x2="-120" y2="0" stroke-linecap="round" stroke-width="3" stroke="black"></line><text x="-20" y="-38" direction="rtl" font-size="24" fill="black" svgjs:data="{&quot;leading&quot;:&quot;1.3&quot;}"><tspan dy="31.200000000000003" x="-20" svgjs:data="{&quot;leading&quot;:&quot;1.3&quot;,&quot;newLined&quot;:true}">הלך</tspan><title>verb</title></text><g class="word" transform="matrix(0.5000000000000001,-0.8660254037844386,0.8660254037844386,0.5000000000000001,-20.20026837462514,0.11562500000000142)"><line x1="0" y1="0" x2="-68.8046875" y2="0" stroke-linecap="round" stroke-width="3" stroke="black"></line><text x="-20" y="-38" direction="rtl" font-size="24" fill="black" svgjs:data="{&quot;leading&quot;:&quot;1.3&quot;}"><tspan dy="31.200000000000003" x="-20" svgjs:data="{&quot;leading&quot;:&quot;1.3&quot;,&quot;newLined&quot;:true}">לא</tspan><title>underslant</title></text></g><g class="descending-line"><line x1="-65" y1="0" x2="-82" y2="30" stroke-linecap="round" stroke-width="3" stroke="black"></line><g class="word" transform="matrix(1,0,0,1,-82,30)"><line x1="0" y1="0" x2="-97.609375" y2="0" stroke-linecap="round" stroke-width="3" stroke="black"></line><text x="-20" y="-38" direction="rtl" font-size="24" fill="black" svgjs:data="{&quot;leading&quot;:&quot;1.3&quot;}"><tspan dy="31.200000000000003" x="-20" svgjs:data="{&quot;leading&quot;:&quot;1.3&quot;,&quot;newLined&quot;:true}">בעצת</tspan><title>underslantthenstraight</title></text><g class="word" transform="matrix(1,0,0,1,-97.609375,30)"><line x1="0" y1="0" x2="-46.234375" y2="0" stroke-linecap="round" stroke-width="3" stroke="black"></line><text x="-20" y="-38" direction="rtl" font-size="24" fill="black" svgjs:data="{&quot;leading&quot;:&quot;1.3&quot;}"><tspan dy="31.200000000000003" x="-20" svgjs:data="{&quot;leading&quot;:&quot;1.3&quot;,&quot;newLined&quot;:true}"> </tspan><title>stairstep</title></text><g class="word" transform="matrix(0.5000000000000001,-0.8660254037844386,0.8660254037844386,0.5000000000000001,-20.200268374625125,0.11562499999999432)"><line x1="0" y1="0" x2="-112.01171875" y2="0" stroke-linecap="round" stroke-width="3" stroke="black"></line><text x="-20" y="-38" direction="rtl" font-size="24" fill="black" svgjs:data="{&quot;leading&quot;:&quot;1.3&quot;}"><tspan dy="31.200000000000003" x="-20" svgjs:data="{&quot;leading&quot;:&quot;1.3&quot;,&quot;newLined&quot;:true}">רשעים</tspan><title>underslant</title></text></g></g><line x1="-97.609375" y1="0" x2="-97.609375" y2="30" stroke-linecap="round" stroke-width="3" stroke="black"></line></g></g></g><g class="word" transform="matrix(1,0,0,1,500,40)"><line x1="0" y1="0" x2="-46.234375" y2="0" stroke-linecap="round" stroke-width="3" stroke="black"></line><text x="-20" y="-38" direction="rtl" font-size="24" fill="black" svgjs:data="{&quot;leading&quot;:&quot;1.3&quot;}"><tspan dy="31.200000000000003" x="-20" svgjs:data="{&quot;leading&quot;:&quot;1.3&quot;,&quot;newLined&quot;:true}"> </tspan><title></title></text></g><g class="descending-line"></g><g class="word" transform="matrix(1,0,0,1,500,40)"><line x1="0" y1="0" x2="-120" y2="0" stroke-linecap="round" stroke-width="3" stroke="black"></line><text x="-20" y="-38" direction="rtl" font-size="24" fill="black" svgjs:data="{&quot;leading&quot;:&quot;1.3&quot;}"><tspan dy="31.200000000000003" x="-20" svgjs:data="{&quot;leading&quot;:&quot;1.3&quot;,&quot;newLined&quot;:true}">עמד</tspan><title>verb</title></text><g class="word" transform="matrix(0.5000000000000001,-0.8660254037844386,0.8660254037844386,0.5000000000000001,-20.20026837462514,0.11562500000000142)"><line x1="0" y1="0" x2="-68.8046875" y2="0" stroke-linecap="round" stroke-width="3" stroke="black"></line><text x="-20" y="-38" direction="rtl" font-size="24" fill="black" svgjs:data="{&quot;leading&quot;:&quot;1.3&quot;}"><tspan dy="31.200000000000003" x="-20" svgjs:data="{&quot;leading&quot;:&quot;1.3&quot;,&quot;newLined&quot;:true}">לא</tspan><title>underslant</title></text></g><g class="descending-line"><line x1="-65" y1="0" x2="-82" y2="30" stroke-linecap="round" stroke-width="3" stroke="black"></line><g class="word" transform="matrix(1,0,0,1,-82,30)"><line x1="0" y1="0" x2="-97.609375" y2="0" stroke-linecap="round" stroke-width="3" stroke="black"></line><text x="-20" y="-38" direction="rtl" font-size="24" fill="black" svgjs:data="{&quot;leading&quot;:&quot;1.3&quot;}"><tspan dy="31.200000000000003" x="-20" svgjs:data="{&quot;leading&quot;:&quot;1.3&quot;,&quot;newLined&quot;:true}">בדרך</tspan><title>underslantthenstraight</title></text><g class="word" transform="matrix(1,0,0,1,-97.609375,30)"><line x1="0" y1="0" x2="-46.234375" y2="0" stroke-linecap="round" stroke-width="3" stroke="black"></line><text x="-20" y="-38" direction="rtl" font-size="24" fill="black" svgjs:data="{&quot;leading&quot;:&quot;1.3&quot;}"><tspan dy="31.200000000000003" x="-20" svgjs:data="{&quot;leading&quot;:&quot;1.3&quot;,&quot;newLined&quot;:true}"> </tspan><title>stairstep</title></text><g class="word" transform="matrix(0.5000000000000001,-0.8660254037844386,0.8660254037844386,0.5000000000000001,-20.200268374625125,0.11562499999999432)"><line x1="0" y1="0" x2="-112.01171875" y2="0" stroke-linecap="round" stroke-width="3" stroke="black"></line><text x="-20" y="-38" direction="rtl" font-size="24" fill="black" svgjs:data="{&quot;leading&quot;:&quot;1.3&quot;}"><tspan dy="31.200000000000003" x="-20" svgjs:data="{&quot;leading&quot;:&quot;1.3&quot;,&quot;newLined&quot;:true}">חטאים</tspan><title>underslant</title></text></g></g><line x1="-97.609375" y1="0" x2="-97.609375" y2="30" stroke-linecap="round" stroke-width="3" stroke="black"></line></g></g></g><g class="word" transform="matrix(1,0,0,1,500,40)"><line x1="0" y1="0" x2="-46.234375" y2="0" stroke-linecap="round" stroke-width="3" stroke="black"></line><text x="-20" y="-38" direction="rtl" font-size="24" fill="black" svgjs:data="{&quot;leading&quot;:&quot;1.3&quot;}"><tspan dy="31.200000000000003" x="-20" svgjs:data="{&quot;leading&quot;:&quot;1.3&quot;,&quot;newLined&quot;:true}"> </tspan><title></title></text></g><g class="word" transform="matrix(1,0,0,1,500,40)"><line x1="0" y1="0" x2="-46.234375" y2="0" stroke-linecap="round" stroke-width="3" stroke="black"></line><text x="-20" y="-38" direction="rtl" font-size="24" fill="black" svgjs:data="{&quot;leading&quot;:&quot;1.3&quot;}"><tspan dy="31.200000000000003" x="-20" svgjs:data="{&quot;leading&quot;:&quot;1.3&quot;,&quot;newLined&quot;:true}"> </tspan><title></title></text></g><g class="word" transform="matrix(1,0,0,1,500,40)"><line x1="0" y1="0" x2="-46.234375" y2="0" stroke-linecap="round" stroke-width="3" stroke="black"></line><text x="-20" y="-38" direction="rtl" font-size="24" fill="black" svgjs:data="{&quot;leading&quot;:&quot;1.3&quot;}"><tspan dy="31.200000000000003" x="-20" svgjs:data="{&quot;leading&quot;:&quot;1.3&quot;,&quot;newLined&quot;:true}"> </tspan><title></title></text></g></svg>