<svg xmlns="http://www.w3.org/2000/svg" version="1.1" xmlns:xlink="http://www.w3.org/1999/xlink" xmlns:svgjs="http://svgjs.com/svgjs" width="500" height="500"><svg xmlns="http://www.w3.org/2000/svg" version="1.1" xmlns:xlink="http://www.w3.org/1999/xlink" xmlns:svgjs="http://svgjs.com/svgjs" width="2" height="0" style="opacity: 0; position: absolute; left: -100%; top: -100%; overflow: hidden;" focusable="false" aria-hidden="true"><path d="M0 0 "></path></svg><g class="sentence"><g class="word" transform="matrix(1,0,0,1,10,50)"><line x1="0" y1="0" x2="198.67890625" y2="0" stroke-width="3" stroke="black"></line><text x="20" y="-38" direction="ltr" font-size="24" fill="black" svgjs:data="{&quot;leading&quot;:&quot;1.3&quot;}"><tspan dy="31.200000000000003" x="20" svgjs:data="{&quot;leading&quot;:&quot;1.3&quot;,&quot;newLined&quot;:true}">fox</tspan><title>subject</title></text><g class="word" transform="matrix(0.5000000000000001,0.8660254037844386,-0.8660254037844386,0.5000000000000001,20.200268374625153,0.1156250000000014)"><line x1="0" y1="0" x2="76.66796875" y2="0" stroke-width="3" stroke="black"></line><text x="20" y="-38" direction="ltr" font-size="24" fill="black" svgjs:data="{&quot;leading&quot;:&quot;1.3&quot;}"><tspan dy="31.200000000000003" x="20" svgjs:data="{&quot;leading&quot;:&quot;1.3&quot;,&quot;newLined&quot;:true}">the</tspan><title>article</title></text></g><g class="word" transform="matrix(0.5000000000000001,0.8660254037844386,-0.8660254037844386,0.5000000000000001,65.20026837462515,0.1156250000000014)"><line x1="0" y1="0" x2="99.53125" y2="0" stroke-width="3" stroke="black"></line><text x="20" y="-38" direction="ltr" font-size="24" fill="black" svgjs:data="{&quot;leading&quot;:&quot;1.3&quot;}"><tspan dy="31.200000000000003" x="20" svgjs:data="{&quot;leading&quot;:&quot;1.3&quot;,&quot;newLined&quot;:true}">quick</tspan><title>adjective</title></text></g><g class="word" transform="matrix(0.5000000000000001,0.8660254037844386,-0.8660254037844386,0.5000000000000001,110.20026837462515,0.1156250000000014)"><line x1="0" y1="0" x2="112.3984375" y2="0" stroke-width="3" stroke="black"></line><text x="20" y="-38" direction="ltr" font-size="24" fill="black" svgjs:data="{&quot;leading&quot;:&quot;1.3&quot;}"><tspan dy="31.200000000000003" x="20" svgjs:data="{&quot;leading&quot;:&quot;1.3&quot;,&quot;newLined&quot;:true}">brown</tspan><title>adjective</title></text></g></g><line x1="208.67890625" y1="20" x2="208.67890625" y2="70" stroke-width="3" stroke="black"></line><g class="word" transform="matrix(1,0,0,1,208.67890625,50)"><line x1="0" y1="0" x2="109.28125" y2="0" stroke-width="3" stroke="black"></line><text x="20" y="-38" direction="ltr" font-size="24" fill="black" svgjs:data="{&quot;leading&quot;:&quot;1.3&quot;}"><tspan dy="31.200000000000003" x="20" svgjs:data="{&quot;leading&quot;:&quot;1.3&quot;,&quot;newLined&quot;:true}">jumps</tspan><title>verb</title></text><g class="word" transform="matrix(0.5000000000000001,0.8660254037844386,-0.8660254037844386,0.5000000000000001,20.200268374625153,0.1156250000000014)"><line x1="0" y1="0" x2="109.78125" y2="0" stroke-width="3" stroke="black"></line><text x="20" y="-38" direction="ltr" font-size="24" fill="black" svgjs:data="{&quot;leading&quot;:&quot;1.3&quot;}"><tspan dy="31.200000000000003" x="20" svgjs:data="{&quot;leading&quot;:&quot;1.3&quot;,&quot;newLined&quot;:true}">over</tspan><title>preposition</title></text><g class="word" transform="matrix(0.5000000000000001,-0.8660254037844386,0.8660254037844386,0.5000000000000001,69.58098162537485,0.1156250000000014)"><line x1="0" y1="0" x2="137.916796875" y2="0" stroke-width="3" stroke="black"></line><text x="20" y="-38" direction="ltr" font-size="24" fill="black" svgjs:data="{&quot;leading&quot;:&quot;1.3&quot;}"><tspan dy="31.200000000000003" x="20" svgjs:data="{&quot;leading&quot;:&quot;1.3&quot;,&quot;newLined&quot;:true}">dog</tspan><title>noun</title></text><g class="word" transform="matrix(0.5000000000000001,0.8660254037844386,-0.8660254037844386,0.5000000000000001,20.200268374625153,0.1156250000000014)"><line x1="0" y1="0" x2="76.66796875" y2="0" stroke-width="3" stroke="black"></line><text x="20" y="-38" direction="ltr" font-size="24" fill="black" svgjs:data="{&quot;leading&quot;:&quot;1.3&quot;}"><tspan dy="31.200000000000003" x="20" svgjs:data="{&quot;leading&quot;:&quot;1.3&quot;,&quot;newLined&quot;:true}">the</tspan><title>article</title></text></g><g class="word" transform="matrix(0.5000000000000001,0.8660254037844386,-0.8660254037844386,0.5000000000000001,65.20026837462515,0.1156250000000014)"><line x1="0" y1="0" x2="82.73828125" y2="0" stroke-width="3" stroke="black"></line><text x="20" y="-38" direction="ltr" font-size="24" fill="black" svgjs:data="{&quot;leading&quot;:&quot;1.3&quot;}"><tspan dy="31.200000000000003" x="20" svgjs:data="{&quot;leading&quot;:&quot;1.3&quot;,&quot;newLined&quot;:true}">lazy</tspan><title>adjective</title></text></g></g></g></g></g></svg>