<svg xmlns="http://www.w3.org/2000/svg" version="1.1" xmlns:xlink="http://www.w3.org/1999/xlink" xmlns:svgjs="http://svgjs.com/svgjs" width="500" height="500"><g class="word" transform="matrix(1,0,0,1,10,40)"><line x1="0" y1="0" x2="46.234375" y2="0" stroke-linecap="round" stroke-width="3" stroke="black"></line><text x="20" y="-38" direction="ltr" font-size="24" fill="black" svgjs:data="{&quot;leading&quot;:&quot;1.3&quot;}"><tspan dy="31.200000000000003" x="20" svgjs:data="{&quot;leading&quot;:&quot;1.3&quot;,&quot;newLined&quot;:true}"> </tspan><title></title></text></g><svg xmlns="http://www.w3.org/2000/svg" version="1.1" xmlns:xlink="http://www.w3.org/1999/xlink" xmlns:svgjs="http://svgjs.com/svgjs" width="2" height="0" style="opacity: 0; position: absolute; left: -100%; top: -100%; overflow: hidden;" focusable="false" aria-hidden="true"><path d="M0 0 "></path></svg><g class="word" transform="matrix(1,0,0,1,10,40)"><line x1="0" y1="0" x2="80" y2="0" stroke-linecap="round" stroke-width="3" stroke="black"></line><text x="20" y="-38" direction="ltr" font-size="24" fill="black" svgjs:data="{&quot;leading&quot;:&quot;1.3&quot;}"><tspan dy="31.200000000000003" x="20" svgjs:data="{&quot;leading&quot;:&quot;1.3&quot;,&quot;newLined&quot;:true}">sit</tspan><title>verb</title></text><g class="word" transform="matrix(0.5000000000000001,0.8660254037844386,-0.8660254037844386,0.5000000000000001,20.200268374625153,0.1156250000000014)"><line x1="0" y1="0" x2="81.0625" y2="0" stroke-linecap="round" stroke-width="3" stroke="black"></line><text x="20" y="-38" direction="ltr" font-size="24" fill="black" svgjs:data="{&quot;leading&quot;:&quot;1.3&quot;}"><tspan dy="31.200000000000003" x="20" svgjs:data="{&quot;leading&quot;:&quot;1.3&quot;,&quot;newLined&quot;:true}">Not</tspan><title>underslant</title></text></g><line x1="65" y1="0" x2="82" y2="30" stroke-linecap="round" stroke-width="3" stroke="black"></line><g class="word" transform="matrix(1,0,0,1,82,30)"><line x1="0" y1="0" x2="157.29296875" y2="0" stroke-linecap="round" stroke-width="3" stroke="black"></line><text x="20" y="-38" direction="ltr" font-size="24" fill="black" svgjs:data="{&quot;leading&quot;:&quot;1.3&quot;}"><tspan dy="31.200000000000003" x="20" svgjs:data="{&quot;leading&quot;:&quot;1.3&quot;,&quot;newLined&quot;:true}">In the seat</tspan><title>underslantthenstraight</title></text><line x1="20" y1="0" x2="20" y2="30" stroke-linecap="round" stroke-width="3" stroke="black"></line><g class="word" transform="matrix(1,0,0,1,20,30)"><line x1="0" y1="0" x2="134.8984375" y2="0" stroke-linecap="round" stroke-width="3" stroke="black"></line><text x="20" y="-38" direction="ltr" font-size="24" fill="black" svgjs:data="{&quot;leading&quot;:&quot;1.3&quot;}"><tspan dy="31.200000000000003" x="20" svgjs:data="{&quot;leading&quot;:&quot;1.3&quot;,&quot;newLined&quot;:true}">Mockers</tspan><title>understraight</title></text></g></g></g></svg>