<svg xmlns="http://www.w3.org/2000/svg" version="1.1" xmlns:xlink="http://www.w3.org/1999/xlink" xmlns:svgjs="http://svgjs.com/svgjs" width="500" height="500"><g class="word" transform="matrix(1,0,0,1,400,40)"><line x1="0" y1="0" x2="-46.234375" y2="0" stroke-linecap="round" stroke-width="3" stroke="black"></line><text x="-20" y="-38" direction="rtl" font-size="24" fill="black" svgjs:data="{&quot;leading&quot;:&quot;1.3&quot;}"><tspan dy="31.200000000000003" x="-20" svgjs:data="{&quot;leading&quot;:&quot;1.3&quot;,&quot;newLined&quot;:true}"> </tspan><title></title></text></g><svg xmlns="http://www.w3.org/2000/svg" version="1.1" xmlns:xlink="http://www.w3.org/1999/xlink" xmlns:svgjs="http://svgjs.com/svgjs" width="2" height="0" style="opacity: 0; position: absolute; left: -100%; top: -100%; overflow: hidden;" focusable="false" aria-hidden="true"><path d="M0 0 "></path></svg><g class="word" transform="matrix(1,0,0,1,400,40)"><line x1="0" y1="0" x2="-83.20703125" y2="0" stroke-linecap="round" stroke-width="3" stroke="black"></line><text x="-20" y="-38" direction="rtl" font-size="24" fill="black" svgjs:data="{&quot;leading&quot;:&quot;1.3&quot;}"><tspan dy="31.200000000000003" x="-20" svgjs:data="{&quot;leading&quot;:&quot;1.3&quot;,&quot;newLined&quot;:true}">ישב</tspan><title>verb</title></text><g class="word" transform="matrix(0.5000000000000001,-0.8660254037844386,0.8660254037844386,0.5000000000000001,-24.602612124625146,1.3337052255503892)"><line x1="0" y1="0" x2="-68.8046875" y2="0" stroke-linecap="round" stroke-width="3" stroke="black"></line><text x="-20" y="-38" direction="rtl" font-size="24" fill="black" svgjs:data="{&quot;leading&quot;:&quot;1.3&quot;}"><tspan dy="31.200000000000003" x="-20" svgjs:data="{&quot;leading&quot;:&quot;1.3&quot;,&quot;newLined&quot;:true}">לא</tspan><title>underslant</title></text></g><line x1="-65" y1="0" x2="-85" y2="30" stroke-linecap="round" stroke-width="3" stroke="black"></line><g class="word" transform="matrix(1,0,0,1,-85,30)"><line x1="0" y1="0" x2="-112.01171875" y2="0" stroke-linecap="round" stroke-width="3" stroke="black"></line><text x="-20" y="-38" direction="rtl" font-size="24" fill="black" svgjs:data="{&quot;leading&quot;:&quot;1.3&quot;}"><tspan dy="31.200000000000003" x="-20" svgjs:data="{&quot;leading&quot;:&quot;1.3&quot;,&quot;newLined&quot;:true}">במושב</tspan><title>underslantthenstraight</title></text><line x1="-20" y1="0" x2="-20" y2="30" stroke-linecap="round" stroke-width="3" stroke="black"></line><g class="word" transform="matrix(1,0,0,1,-20,30)"><line x1="0" y1="0" x2="-97.609375" y2="0" stroke-linecap="round" stroke-width="3" stroke="black"></line><text x="-20" y="-38" direction="rtl" font-size="24" fill="black" svgjs:data="{&quot;leading&quot;:&quot;1.3&quot;}"><tspan dy="31.200000000000003" x="-20" svgjs:data="{&quot;leading&quot;:&quot;1.3&quot;,&quot;newLined&quot;:true}">לצים</tspan><title>understraight</title></text></g></g></g></svg>