<svg xmlns="http://www.w3.org/2000/svg" version="1.1" xmlns:xlink="http://www.w3.org/1999/xlink" xmlns:svgjs="http://svgjs.com/svgjs" width="500" height="500"><svg xmlns="http://www.w3.org/2000/svg" version="1.1" xmlns:xlink="http://www.w3.org/1999/xlink" xmlns:svgjs="http://svgjs.com/svgjs" width="2" height="0" style="opacity: 0; position: absolute; left: -100%; top: -100%; overflow: hidden;" focusable="false" aria-hidden="true"><path d="M0 0 "></path></svg><g class="descending-line"></g><g class="descending-line"></g><g class="descending-line"></g><g class="word" transform="matrix(1,0,0,1,500,40)"><line x1="0" y1="0" x2="-200" y2="0" stroke-linecap="round" stroke-width="3" stroke="black"></line><text x="-20" y="-38" direction="rtl" font-size="24" fill="black" svgjs:data="{&quot;leading&quot;:&quot;1.3&quot;}"><tspan dy="31.200000000000003" x="-20" svgjs:data="{&quot;leading&quot;:&quot;1.3&quot;,&quot;newLined&quot;:true}">הלך</tspan><title>verb</title></text><g class="word" transform="matrix(0.5000000000000001,-0.8660254037844386,0.8660254037844386,0.5000000000000001,-20.20026837462514,0.11562500000000142)"><line x1="0" y1="0" x2="-68.8046875" y2="0" stroke-linecap="round" stroke-width="3" stroke="black"></line><text x="-20" y="-38" direction="rtl" font-size="24" fill="black" svgjs:data="{&quot;leading&quot;:&quot;1.3&quot;}"><tspan dy="31.200000000000003" x="-20" svgjs:data="{&quot;leading&quot;:&quot;1.3&quot;,&quot;newLined&quot;:true}">לא</tspan><title>underslant</title></text></g><g class="descending-line"><line x1="-65" y1="0" x2="-338.9802411818998" y2="483.4945432621762" stroke-linecap="round" stroke-width="3" stroke="black"></line><g class="word" transform="matrix(1,0,0,1,-338.9802411818998,483.4945432621762)"><line x1="0" y1="0" x2="-88.375" y2="0" stroke-linecap="round" stroke-width="3" stroke="black"></line><text x="-20" y="-38" direction="rtl" font-size="24" fill="black" svgjs:data="{&quot;leading&quot;:&quot;1.3&quot;}"><tspan dy="31.200000000000003" x="-20" svgjs:data="{&quot;leading&quot;:&quot;1.3&quot;,&quot;newLined&quot;:true}">uts1</tspan><title>underslantthenstraight</title></text><g class="word" transform="matrix(1,0,0,1,-88.375,30)"><line x1="0" y1="0" x2="-150.953125" y2="0" stroke-linecap="round" stroke-width="3" stroke="black"></line><text x="-20" y="-38" direction="rtl" font-size="24" fill="black" svgjs:data="{&quot;leading&quot;:&quot;1.3&quot;}"><tspan dy="31.200000000000003" x="-20" svgjs:data="{&quot;leading&quot;:&quot;1.3&quot;,&quot;newLined&quot;:true}">stairstep1</tspan><title>stairstep</title></text><g class="word" transform="matrix(0.5000000000000001,-0.8660254037844386,0.8660254037844386,0.5000000000000001,-20.200268374625125,0.11562499999999432)"><line x1="0" y1="0" x2="-175.22265625" y2="0" stroke-linecap="round" stroke-width="3" stroke="black"></line><text x="-20" y="-38" direction="rtl" font-size="24" fill="black" svgjs:data="{&quot;leading&quot;:&quot;1.3&quot;}"><tspan dy="31.200000000000003" x="-20" svgjs:data="{&quot;leading&quot;:&quot;1.3&quot;,&quot;newLined&quot;:true}">underslant1</tspan><title>underslant</title></text></g></g><line x1="-88.375" y1="0" x2="-88.375" y2="30" stroke-linecap="round" stroke-width="3" stroke="black"></line><g class="word" transform="matrix(0.5000000000000001,-0.8660254037844386,0.8660254037844386,0.5000000000000001,-20.200268374625125,0.11562499999999432)"><line x1="0" y1="0" x2="-188.5703125" y2="0" stroke-linecap="round" stroke-width="3" stroke="black"></line><text x="-20" y="-38" direction="rtl" font-size="24" fill="black" svgjs:data="{&quot;leading&quot;:&quot;1.3&quot;}"><tspan dy="31.200000000000003" x="-20" svgjs:data="{&quot;leading&quot;:&quot;1.3&quot;,&quot;newLined&quot;:true}">underslant1a</tspan><title>underslant</title></text></g></g></g><g class="descending-line"><line x1="-110" y1="0" x2="-255.4901205909499" y2="256.7472716310881" stroke-linecap="round" stroke-width="3" stroke="black"></line><g class="word" transform="matrix(1,0,0,1,-255.4901205909499,256.7472716310881)"><line x1="0" y1="0" x2="-88.375" y2="0" stroke-linecap="round" stroke-width="3" stroke="black"></line><text x="-20" y="-38" direction="rtl" font-size="24" fill="black" svgjs:data="{&quot;leading&quot;:&quot;1.3&quot;}"><tspan dy="31.200000000000003" x="-20" svgjs:data="{&quot;leading&quot;:&quot;1.3&quot;,&quot;newLined&quot;:true}">uts2</tspan><title>underslantthenstraight</title></text><g class="word" transform="matrix(1,0,0,1,-88.375,30)"><line x1="0" y1="0" x2="-150.953125" y2="0" stroke-linecap="round" stroke-width="3" stroke="black"></line><text x="-20" y="-38" direction="rtl" font-size="24" fill="black" svgjs:data="{&quot;leading&quot;:&quot;1.3&quot;}"><tspan dy="31.200000000000003" x="-20" svgjs:data="{&quot;leading&quot;:&quot;1.3&quot;,&quot;newLined&quot;:true}">stairstep2</tspan><title>stairstep</title></text><g class="word" transform="matrix(0.5000000000000001,-0.8660254037844386,0.8660254037844386,0.5000000000000001,-20.200268374625125,0.11562499999999432)"><line x1="0" y1="0" x2="-175.22265625" y2="0" stroke-linecap="round" stroke-width="3" stroke="black"></line><text x="-20" y="-38" direction="rtl" font-size="24" fill="black" svgjs:data="{&quot;leading&quot;:&quot;1.3&quot;}"><tspan dy="31.200000000000003" x="-20" svgjs:data="{&quot;leading&quot;:&quot;1.3&quot;,&quot;newLined&quot;:true}">underslant2</tspan><title>underslant</title></text></g></g><line x1="-88.375" y1="0" x2="-88.375" y2="30" stroke-linecap="round" stroke-width="3" stroke="black"></line></g></g><g class="descending-line"><line x1="-155" y1="0" x2="-172" y2="30" stroke-linecap="round" stroke-width="3" stroke="black"></line><g class="word" transform="matrix(1,0,0,1,-172,30)"><line x1="0" y1="0" x2="-88.375" y2="0" stroke-linecap="round" stroke-width="3" stroke="black"></line><text x="-20" y="-38" direction="rtl" font-size="24" fill="black" svgjs:data="{&quot;leading&quot;:&quot;1.3&quot;}"><tspan dy="31.200000000000003" x="-20" svgjs:data="{&quot;leading&quot;:&quot;1.3&quot;,&quot;newLined&quot;:true}">uts3</tspan><title>underslantthenstraight</title></text><g class="word" transform="matrix(1,0,0,1,-88.375,30)"><line x1="0" y1="0" x2="-150.953125" y2="0" stroke-linecap="round" stroke-width="3" stroke="black"></line><text x="-20" y="-38" direction="rtl" font-size="24" fill="black" svgjs:data="{&quot;leading&quot;:&quot;1.3&quot;}"><tspan dy="31.200000000000003" x="-20" svgjs:data="{&quot;leading&quot;:&quot;1.3&quot;,&quot;newLined&quot;:true}">stairstep3</tspan><title>stairstep</title></text><g class="word" transform="matrix(0.5000000000000001,-0.8660254037844386,0.8660254037844386,0.5000000000000001,-20.200268374625125,0.11562499999999432)"><line x1="0" y1="0" x2="-175.22265625" y2="0" stroke-linecap="round" stroke-width="3" stroke="black"></line><text x="-20" y="-38" direction="rtl" font-size="24" fill="black" svgjs:data="{&quot;leading&quot;:&quot;1.3&quot;}"><tspan dy="31.200000000000003" x="-20" svgjs:data="{&quot;leading&quot;:&quot;1.3&quot;,&quot;newLined&quot;:true}">underslant3</tspan><title>underslant</title></text></g></g><line x1="-88.375" y1="0" x2="-88.375" y2="30" stroke-linecap="round" stroke-width="3" stroke="black"></line></g></g></g></svg>